<?xml version="1.0" standalone="no"?>
<!DOCTYPE svg PUBLIC "-//W3C//DTD SVG 20010904//EN"
 "http://www.w3.org/TR/2001/REC-SVG-20010904/DTD/svg10.dtd">
<svg version="1.0" xmlns="http://www.w3.org/2000/svg"
 width="512.000000pt" height="512.000000pt" viewBox="0 0 512.000000 512.000000"
 preserveAspectRatio="xMidYMid meet">
<metadata>
Created by potrace 1.11, written by Peter Selinger 2001-2013
</metadata>
<g transform="translate(0.000000,512.000000) scale(0.100000,-0.100000)"
fill="#000000" stroke="none">
<path d="M3442 4884 c-115 -68 -114 -214 1 -285 103 -64 117 -74 117 -88 0 -8
7 -19 15 -25 8 -6 16 -34 19 -63 5 -49 3 -54 -25 -73 -54 -39 -82 -103 -93
-215 -14 -133 -19 -172 -22 -190 -3 -11 -7 -36 -10 -55 -41 -262 -149 -606
-247 -785 -6 -11 -26 -49 -46 -85 -19 -36 -50 -86 -68 -112 -18 -26 -33 -51
-33 -54 0 -22 -165 -219 -275 -329 -258 -259 -547 -439 -915 -571 -182 -64
-455 -130 -620 -149 -30 -3 -66 -8 -80 -10 -72 -11 -217 -18 -400 -19 -196 -2
-207 -3 -247 -26 -120 -67 -142 -231 -44 -329 33 -34 111 -96 176 -141 28 -18
52 -36 55 -40 6 -7 103 -66 155 -95 107 -59 136 -74 220 -110 50 -22 119 -49
155 -61 l65 -21 -60 -12 c-33 -7 -64 -14 -70 -15 -5 -2 -14 -5 -20 -6 -26 -6
-88 -66 -107 -104 -25 -48 -29 -147 -8 -186 34 -65 65 -91 168 -143 209 -106
477 -199 677 -233 49 -9 92 -17 95 -19 3 -2 43 -6 90 -11 148 -13 401 -8 520
10 32 5 106 19 120 22 381 87 722 261 1046 534 99 84 303 284 379 374 28 33
55 64 60 70 6 6 24 29 40 51 16 22 34 45 40 50 15 14 137 198 174 265 127 225
224 507 256 743 24 173 24 462 0 571 -2 12 -6 35 -9 51 -34 235 -158 574 -296
810 -16 28 -34 59 -39 70 -20 41 -159 237 -240 339 -73 93 -92 110 -145 135
l-61 30 -3 55 c-8 139 -79 294 -182 393 -108 105 -200 133 -278 87z"/>
</g>
</svg>
